# AST/ASF file generated using VICON BodyLanguage
# -----------------------------------------------
:version 1.10
:name VICON
:units
  mass 1.0
  length 0.45
  angle deg
:documentation
   .ast/.asf automatically generated from VICON data using
   VICON BodyBuilder and BodyLanguage model FoxedUp or BRILLIANT.MOD
:root
   order TX TY TZ RX RY RZ
   axis XYZ
   position 0 0 0
   orientation 0 0 0
:bonedata
  begin
     id 1
     name lhipjoint
     direction 0.692024 -0.648617 0.316857
     length 2.68184
     axis 0 0 0  XYZ
  end
  begin
     id 2
     name lfemur
     direction -0.14202 0 1.5
     length 6.92462
     axis 0 0 20  XYZ
    dof rx ry rz
    limits (-160.0 20.0)
           (-70.0 70.0)
           (-60.0 70.0)
  end
  begin
     id 3
     name ltibia
     direction -0.24202 -5.5 0
     length 7.40507
     axis 0 0 20   XYZ
    dof rx
    limits (-10.0 170.0)
  end
  begin
     id 4
     name lfoot
     direction 0.079671 -0.218894 1.972491
     length 2.00008
     axis -90 7.62852e-016 20   XYZ
    dof rx rz
    limits (-45.0 90.0)
           (-70.0 20.0)
  end
  begin
     id 5
     name ltoes
     direction 1.53589e-011 -4.2195e-011 1
     length 1.00661
     axis -90 7.62852e-016 20   XYZ
    dof rx
    limits (-90.0 20.0)
  end
  begin
     id 6
     name rhipjoint
     direction -0.656075 -0.678108 -0.331264
     length 2.56521
     axis 0 0 0  XYZ
  end
  begin
      id 7
          name rfemur
          direction 0 0 1.5
          length 6.92462
          axis 0 0 20  XYZ
         dof rx ry rz
         limits (-160.0 20.0)
                (-70.0 70.0)
                (-60.0 70.0)
  end
  begin
     id 8
     name rtibia
     direction 0.34202 -9.5 0
          length 7.40507
          axis 0 0 20   XYZ
    dof rx
    limits (-10.0 170.0)
 end
 begin
     id 9
     name rfoot
     direction -0.0987546 -2 0.957408
     length 2.11166
     axis -90 -7.62852e-016 -20   XYZ
    dof rx rz
    limits (-45.0 90.0)
           (-20.0 70.0)
  end
  begin
     id 10
     name rtoes
     direction -1.53567e-011 -4.21961e-011 1
     length 1.05594
     axis -90 -7.62852e-016 -20   XYZ
    dof rx
    limits (-90.0 20.0)
  end
  begin
     id 11
     name lowerback
     direction -0.00696301 0.999838 -0.0165726
     length 2.24007
     axis 0 0 0   XYZ
    dof rx ry rz
    limits (-20.0 45.0)
           (-30.0 30.0)
           (-30.0 30.0)
  end
  begin
     id 12
     name upperback
     direction 0.024939 0.995922 -0.0867062
     length 2.20123
     axis 0 0 0   XYZ
    dof rx ry rz
    limits (-20.0 45.0)
           (-30.0 30.0)
           (-30.0 30.0)
  end
  begin
     id 13
     name thorax
     direction 0.0278643 0.996582 -0.0777635
     length 2.21314
     axis 0 0 0   XYZ
    dof rx ry rz
    limits (-20.0 45.0)
           (-30.0 30.0)
           (-30.0 30.0)
  end
  begin
     id 14
     name lowerneck
     direction -0.0847603 0.978405 0.188517
     length 1.46328
     axis 0 0 0   XYZ
    dof rx ry rz
    limits (-20.0 45.0)
           (-30.0 30.0)
           (-30.0 30.0)
  end
  begin
     id 15
     name upperneck
     direction 0.118386 0.969189 -0.216005
     length 1.5082
     axis 0 0 0   XYZ
    dof rx ry rz
    limits (-20.0 45.0)
           (-30.0 30.0)
           (-30.0 30.0)
  end
  begin
     id 16
     name head
     direction 0.0473387 0.994317 -0.0953547
     length 1.52456
     axis 0 0 0   XYZ
    dof rx ry rz
    limits (-20.0 45.0)
           (-30.0 30.0)
           (-30.0 30.0)
  end
  begin
     id 17
     name lclavicle
     direction 0.967379 0.252832 0.0159303
     length 3.38699
     axis 0 0 0   XYZ
    dof ry rz
    limits (-20.0 10.0)
           (0.0 20.0)
  end
  begin
     id 18
     name lhumerus
     direction 1 -5 -4
     length 4.96755
     axis 180 -30 -90   XYZ
    dof rx ry rz
    limits (-60.0 90.0)
           (-90.0 90.0)
           (-90.0 90.0)
  end
  begin
     id 19
     name lradius
     direction 1 -5 -1
     length 3.35751
     axis 180 -30 -90   XYZ
    dof rx
    limits (-10.0 170.0)
  end
  begin
     id 20
     name lwrist
     direction 1 -6 0
     length 1.67876
     axis -9.31228e-015 90 90   XYZ
    dof ry
    limits (-180.0 0.0)
 end
  begin
     id 21
     name lhand
     direction 1 -6 1
     length 0.796969
     axis -1.83174e-014 90 90   XYZ
    dof rx rz
    limits (-90.0 90.0)
           (-45.0 45.0)
  end
  begin
     id 22
     name lfingers
     direction 1 -7 5.7413e-026
     length 0.642537
     axis -3.66347e-014 90 90   XYZ
    dof rx
    limits (0.0 90.0)
  end
  begin
     id 23
     name lthumb
     direction 0.707107 -6.3494e-011 0.707107
     length 0.922558
     axis -90 45 -6.68868e-015   XYZ
    dof rx rz
    limits (-45.0 45.0)
           (-45.0 45.0)
  end
  begin
     id 24
     name rclavicle
     direction -0.949012 0.298464 0.101468
     length 3.41865
     axis 0 0 0   XYZ
    dof ry rz
    limits (-10.0 20.0)
           (-20.0 0.0)
  end
  begin
     id 25
     name rhumerus
     direction -1 -6 3
     length 5.21859
     axis 180 30 90   XYZ
    dof rx ry rz
    limits (-90.0 60.0)
           (-90.0 90.0)
           (-90.0 90.0)
  end
  begin
     id 26
     name rradius
     direction -1 -7 9
     length 3.36504
     axis 180 30 90   XYZ
    dof rx
    limits (-10.0 170.0)
  end
  begin
     id 27
     name rwrist
     direction -1 -7.4 9
     length 1.68252
     axis -9.31228e-015 -90 -90   XYZ
    dof ry
    limits (-180.0 0.0)
  end
  begin
     id 28
     name rhand
     direction -1 -7.6 10
     length 0.620444
     axis -1.83174e-014 -90 -90   XYZ
    dof rx rz
    limits (-90.0 90.0)
           (-45.0 45.0)
  end
  begin
     id 29
     name rfingers
     direction -1 -8 5.74091e-026
     length 0.500218
     axis -3.66347e-014 -90 -90   XYZ
    dof rx
    limits (0.0 90.0)
  end
  begin
     id 30
     name rthumb
     direction -0.707107 -6.34961e-011 0.707107
     length 0.718216
     axis -90 -45 6.68868e-015   XYZ
    dof rx rz
    limits (-45.0 45.0)
           (-45.0 45.0)
  end
:hierarchy
  begin
    root lhipjoint rhipjoint lowerback
    lhipjoint lfemur
    lfemur ltibia
    ltibia lfoot
    lfoot ltoes
    rhipjoint rfemur
    rfemur rtibia
    rtibia rfoot
    rfoot rtoes
    lowerback upperback
    upperback thorax
    thorax lowerneck lclavicle rclavicle
    lowerneck upperneck
    upperneck head
    lclavicle lhumerus
    lhumerus lradius
    lradius lwrist
    lwrist lhand lthumb
    lhand lfingers
    rclavicle rhumerus
    rhumerus rradius
    rradius rwrist
    rwrist rhand rthumb
    rhand rfingers
  end
